<svg width="86" height="28" viewBox="0 0 86 28" fill="none" xmlns="http://www.w3.org/2000/svg">
<path d="M0 16.2103C0 9.57443 4.1032 5.14844 10.7794 5.14844C13.0731 5.14844 15.2861 5.59228 16.8535 6.35581V11.9457H16.7729C15.6058 9.89412 13.5139 8.68675 11.0619 8.68675C6.95868 8.68675 4.46635 11.5019 4.46635 16.2103C4.46635 20.9157 6.96179 23.7711 11.0619 23.7711C13.517 23.7711 15.6058 22.5234 16.7729 20.4718H16.8535V26.1021C15.2861 26.8656 13.0731 27.3095 10.7794 27.3095C4.1032 27.3126 0 22.8462 0 16.2103Z" fill="black"/>
<path d="M35.196 26.9898V21.1981H35.075L34.8732 22.0423C34.2711 24.6557 32.1388 27.3126 28.1163 27.3126C22.2843 27.3126 18.3828 22.4862 18.3828 16.2103C18.3828 9.97482 22.2843 5.14844 28.1163 5.14844C32.1388 5.14844 34.2711 7.80217 34.8732 10.4187L35.075 11.2629H35.196V5.47123H39.501V26.9929H35.196V26.9898ZM29.0816 23.9325C32.983 23.9325 35.3171 20.956 35.3171 16.2103C35.3171 11.505 32.983 8.52846 29.0816 8.52846C25.2608 8.52846 22.8461 11.5453 22.8461 16.2507C22.8461 20.956 25.2608 23.9325 29.0816 23.9325Z" fill="black"/>
<path d="M58.446 26.9905V21.1988H58.325L58.1232 22.0431C57.5211 24.6565 55.3888 27.3133 51.3663 27.3133C45.5343 27.3133 41.6328 22.4869 41.6328 16.2111C41.6328 9.97556 45.5343 5.14918 51.3663 5.14918C55.3888 5.14918 57.5211 7.80291 58.1232 10.4194L58.325 11.2636H58.446V0H62.751V26.9905H58.446ZM52.3316 23.9333C56.233 23.9333 58.5671 20.9567 58.5671 16.2111C58.5671 11.5057 56.233 8.5292 52.3316 8.5292C48.5108 8.5292 46.0961 11.5461 46.0961 16.2514C46.0961 20.9567 48.5077 23.9333 52.3316 23.9333Z" fill="black"/>
<path d="M81.696 26.9898V21.1981H81.575L81.3732 22.0423C80.7711 24.6557 78.6388 27.3126 74.6163 27.3126C68.7843 27.3126 64.8828 22.4862 64.8828 16.2103C64.8828 9.97482 68.7843 5.14844 74.6163 5.14844C78.6388 5.14844 80.7711 7.80217 81.3732 10.4187L81.575 11.2629H81.696V5.47123H86.001V26.9929H81.696V26.9898ZM75.5816 23.9325C79.483 23.9325 81.8171 20.956 81.8171 16.2103C81.8171 11.505 79.483 8.52846 75.5816 8.52846C71.7608 8.52846 69.3461 11.5453 69.3461 16.2507C69.3492 20.956 71.7608 23.9325 75.5816 23.9325Z" fill="black"/>
</svg>
