<svg width="131" height="40" viewBox="0 0 131 40" fill="none" xmlns="http://www.w3.org/2000/svg">
<path d="M129.879 34.7079C129.879 35.6978 129.485 36.6471 128.786 37.347C128.086 38.0469 127.136 38.4401 126.146 38.4401H3.74511C2.75361 38.4416 1.8021 38.0493 1.0998 37.3494C0.397497 36.6496 0.00190189 35.6994 0 34.7079V4.9222C0.00114126 3.92968 0.396218 2.9782 1.09844 2.27679C1.80066 1.57538 2.75259 1.1814 3.74511 1.1814H126.138C126.629 1.18121 127.115 1.27779 127.569 1.46563C128.023 1.65346 128.436 1.92887 128.783 2.27613C129.13 2.62338 129.406 3.03566 129.594 3.48944C129.782 3.94321 129.879 4.42958 129.879 4.92076V34.7065V34.7079Z" fill="black"/>
<path opacity="0.1" d="M126.139 0.313293H60.5801L86.2633 39.3132H126.139C127.361 39.3121 128.533 38.8264 129.397 37.9626C130.262 37.0989 130.749 35.9275 130.751 34.7054V4.92255C130.749 3.70018 130.262 2.52847 129.398 1.6644C128.533 0.800323 127.361 0.314432 126.139 0.313293Z" fill="white"/>
<path d="M29.4596 20.1641C29.4323 17.0894 31.9774 15.5936 32.0936 15.5247C30.6582 13.4232 28.4174 13.1361 27.6322 13.1132C25.7561 12.9151 23.9359 14.2357 22.9799 14.2357C22.0239 14.2357 20.5396 13.1318 18.9463 13.1648C16.9036 13.1964 14.9945 14.3778 13.9466 16.2123C11.7848 19.9545 13.3968 25.4538 15.4682 28.4783C16.5046 29.9597 17.7147 31.6133 19.2994 31.5545C20.8497 31.4913 21.4296 30.5669 23.3 30.5669C25.1704 30.5669 25.6972 31.5545 27.3193 31.5171C28.983 31.4913 30.0309 30.03 31.03 28.5343C31.773 27.4794 32.3438 26.3131 32.7209 25.0791C32.6822 25.0662 29.4897 23.8475 29.4581 20.1641H29.4596ZM26.4064 11.1207C27.2404 10.0786 27.8102 8.66037 27.6523 7.22061C26.4451 7.27372 24.9365 8.05461 24.0637 9.07522C23.2957 9.97238 22.6081 11.4452 22.7861 12.8304C24.1412 12.9323 25.5336 12.1471 26.4035 11.1207H26.4064Z" fill="white"/>
<path d="M51.9137 30.2382H49.7476L48.5605 26.506H44.435L43.3053 30.2382H41.1895L45.2776 17.5459H47.8026L51.9137 30.2382ZM48.2031 24.9457L47.1294 21.6312C47.0155 21.2924 46.8021 20.4953 46.4892 19.2397H46.4518C46.3255 19.7795 46.1246 20.5766 45.8489 21.6312L44.7924 24.9457H48.2031ZM62.4069 25.55C62.4069 27.106 61.984 28.3357 61.138 29.2391C60.7805 29.6294 60.3438 29.9389 59.8572 30.1468C59.3705 30.3547 58.845 30.4564 58.3159 30.4449C57.1024 30.4449 56.2311 30.0143 55.7019 29.153V33.956H53.6679V24.0959C53.6679 23.1188 53.6425 22.114 53.5918 21.0814H55.3818L55.4952 22.5327H55.5325C56.211 21.4389 57.2407 20.8919 58.6216 20.8919C59.1401 20.8847 59.6532 20.9963 60.1218 21.2183C60.5904 21.4403 61.0018 21.7666 61.3246 22.1724C62.0452 23.0279 62.406 24.1523 62.4069 25.5457V25.55ZM60.3341 25.6246C60.3341 24.7337 60.1332 23.9988 59.7312 23.4198C59.5347 23.1339 59.2699 22.9015 58.9608 22.7439C58.6517 22.5862 58.3082 22.5082 57.9613 22.5169C57.4618 22.5166 56.9782 22.693 56.5962 23.015C56.1875 23.3477 55.9049 23.8101 55.7952 24.3256C55.7393 24.5273 55.7075 24.735 55.7005 24.9442V26.4716C55.6835 27.0907 55.9026 27.6932 56.3134 28.1568C56.5114 28.3816 56.7567 28.5598 57.0317 28.6787C57.3066 28.7976 57.6045 28.8541 57.9039 28.8444C58.2524 28.8584 58.5989 28.7848 58.9116 28.6304C59.2243 28.4759 59.4933 28.2454 59.6939 27.9601C60.1207 27.3735 60.3341 26.5955 60.3341 25.6261V25.6246ZM72.936 25.55C72.936 27.106 72.513 28.3357 71.6671 29.2391C71.3097 29.6295 70.873 29.939 70.3863 30.1469C69.8996 30.3549 69.3741 30.4565 68.845 30.4449C67.6315 30.4449 66.7602 30.0143 66.231 29.153V33.956H64.197V24.0959C64.197 23.1188 64.1716 22.114 64.1209 21.0814H65.9094L66.0243 22.5327H66.0616C66.7391 21.4389 67.7688 20.8919 69.1507 20.8919C69.6693 20.8851 70.1825 20.997 70.6512 21.2189C71.12 21.4408 71.5317 21.7669 71.8551 22.1724C72.5738 23.0279 72.9341 24.1523 72.936 25.5457V25.55ZM70.8632 25.6246C70.8632 24.7337 70.6618 23.9988 70.2589 23.4198C70.0627 23.1338 69.7982 22.9014 69.4893 22.7437C69.1805 22.586 68.8371 22.508 68.4904 22.5169C67.9905 22.5172 67.5067 22.6935 67.1238 23.015C66.7156 23.3478 66.4335 23.8103 66.3243 24.3256C66.2686 24.5274 66.2363 24.735 66.2281 24.9442V26.4716C66.2122 27.0903 66.4306 27.6922 66.8396 28.1568C67.0381 28.3817 67.2839 28.56 67.5594 28.6789C67.8348 28.7978 68.1331 28.8543 68.433 28.8444C68.7815 28.8585 69.128 28.785 69.4408 28.6305C69.7535 28.476 70.0225 28.2455 70.223 27.9601C70.6498 27.3735 70.8632 26.5955 70.8632 25.6261V25.6246ZM84.7096 26.6783C84.7096 27.7587 84.3335 28.6377 83.5814 29.3152C82.7545 30.0559 81.6014 30.4262 80.1219 30.4262C78.7573 30.4262 77.6615 30.1626 76.8347 29.6353L77.3055 27.9415C78.194 28.4695 79.2104 28.7436 80.2439 28.7338C81.0095 28.7338 81.6057 28.5611 82.0325 28.2156C82.2403 28.0516 82.4066 27.841 82.518 27.6009C82.6295 27.3608 82.683 27.0979 82.6741 26.8333C82.6794 26.592 82.6352 26.3521 82.5443 26.1285C82.4535 25.9048 82.3179 25.7021 82.1459 25.5328C81.7937 25.1825 81.21 24.8562 80.3946 24.5538C78.1706 23.726 77.0586 22.514 77.0586 20.9178C77.0473 20.4295 77.1474 19.9451 77.3514 19.5014C77.5553 19.0576 77.8578 18.6662 78.2357 18.3569C79.0204 17.6928 80.0597 17.3579 81.3535 17.3521C82.5091 17.3521 83.4723 17.5531 84.2359 17.955L83.7263 19.6158C82.975 19.2191 82.1356 19.0186 81.2861 19.033C80.5683 19.033 80.0056 19.2096 79.6037 19.5598C79.4411 19.7034 79.3113 19.8802 79.2232 20.0784C79.135 20.2765 79.0905 20.4913 79.0927 20.7082C79.0887 20.9462 79.1395 21.1819 79.241 21.3972C79.3426 21.6125 79.4922 21.8016 79.6784 21.9499C80.0152 22.2513 80.6301 22.5776 81.5229 22.9289C82.6167 23.37 83.4206 23.8844 83.9345 24.472C84.4595 25.083 84.7361 25.8688 84.7096 26.674V26.6783ZM91.4563 22.6116H89.2098V27.0615C89.2098 28.1908 89.6055 28.7554 90.3969 28.7554C90.7007 28.7627 91.0042 28.7309 91.2998 28.6606L91.3558 30.2052C90.8465 30.3714 90.3122 30.4477 89.7768 30.4306C88.9729 30.4306 88.3447 30.1851 87.892 29.6942C87.4413 29.2047 87.2131 28.3836 87.2131 27.2266V22.6102H85.8781V21.0829H87.2131V19.4077L89.2112 18.8048V21.0829H91.4534V22.6131L91.4563 22.6116ZM101.552 25.5873C101.552 26.9941 101.15 28.1491 100.346 29.0525C99.5049 29.9817 98.3871 30.4459 96.9928 30.4449C95.6473 30.4449 94.577 29.9999 93.7817 29.1099C92.9865 28.22 92.5855 27.0969 92.5788 25.7409C92.5788 24.3227 92.9903 23.1614 93.8133 22.2571C94.6363 21.3527 95.7454 20.903 97.1407 20.9077C98.4804 20.9077 99.5599 21.3537 100.379 22.2456C101.16 23.1069 101.549 24.2236 101.548 25.5959L101.552 25.5873ZM99.4432 25.6333C99.4634 24.8791 99.2752 24.1341 98.8991 23.4801C98.4685 22.7537 97.8613 22.3891 97.0703 22.3891C96.2564 22.3891 95.6349 22.7537 95.2042 23.4801C94.8396 24.0811 94.6578 24.8136 94.6588 25.6778C94.637 26.4345 94.8258 27.1824 95.2042 27.8381C95.6435 28.5645 96.2593 28.9276 97.0517 28.9276C97.844 28.9276 98.4536 28.5582 98.8805 27.8195C99.2664 27.1589 99.4608 26.4038 99.4417 25.639L99.4432 25.6333ZM108.166 22.8743C107.955 22.8356 107.74 22.8168 107.525 22.8183C106.807 22.8183 106.256 23.0868 105.867 23.6279C105.53 24.1064 105.361 24.7093 105.36 25.4366V30.2382H103.322V23.9696C103.322 23.0126 103.302 22.0523 103.261 21.0886H105.034L105.109 22.8399H105.165C105.357 22.2684 105.71 21.7645 106.181 21.3886C106.606 21.0715 107.121 20.8993 107.651 20.8977C107.822 20.8973 107.992 20.9098 108.161 20.935V22.8757L108.166 22.8743ZM117.263 25.2285C117.268 25.5378 117.243 25.847 117.188 26.1515H111.082C111.105 27.0558 111.4 27.7472 111.968 28.2257C112.481 28.6506 113.147 28.8635 113.964 28.8645C114.807 28.876 115.644 28.7299 116.433 28.4338L116.752 29.8435C115.885 30.2262 114.862 30.4148 113.683 30.409C112.263 30.409 111.147 29.9923 110.337 29.1587C109.526 28.3252 109.121 27.2046 109.122 25.7969C109.122 24.4169 109.5 23.2686 110.255 22.3518C111.045 21.3728 112.111 20.8838 113.455 20.8848C114.775 20.8848 115.774 21.3738 116.452 22.3518C116.989 23.127 117.259 24.0887 117.259 25.2299L117.263 25.2285ZM115.324 24.7016C115.351 24.1528 115.214 23.6084 114.929 23.1384C114.577 22.5714 114.035 22.2901 113.308 22.2901C112.991 22.2846 112.677 22.3573 112.395 22.5018C112.113 22.6462 111.87 22.858 111.689 23.1183C111.343 23.5773 111.135 24.1248 111.088 24.6973L115.324 24.7016Z" fill="white"/>
<path d="M43.85 14.1613C43.3618 14.1643 42.8739 14.1394 42.3887 14.0867V7.95011C42.9586 7.86251 43.5346 7.81932 44.1112 7.82091C46.4438 7.82091 47.519 8.96928 47.519 10.8354C47.5176 12.9957 46.2486 14.1613 43.85 14.1613ZM44.1916 8.60754C43.9217 8.60236 43.6519 8.624 43.3863 8.67214V13.3374C43.6109 13.3606 43.8367 13.3697 44.0624 13.3646C45.5912 13.3646 46.4611 12.4948 46.4611 10.8655C46.4611 9.41284 45.6744 8.60754 44.1916 8.60754ZM50.865 14.2058C49.5502 14.2058 48.6975 13.224 48.6975 11.8919C48.6975 10.5023 49.5688 9.51332 50.9397 9.51332C52.2316 9.51332 53.1058 10.4478 53.1058 11.8187C53.1058 13.224 52.2086 14.2058 50.865 14.2058ZM50.9024 10.244C50.1846 10.244 49.7181 10.9186 49.7181 11.8632C49.7181 12.8077 50.1904 13.4637 50.8938 13.4637C51.5971 13.4637 52.0694 12.746 52.0694 11.8431C52.0694 10.9402 51.6057 10.244 50.9024 10.244ZM60.6032 9.60519L59.195 14.1039H58.2734L57.6993 12.1517C57.5544 11.6738 57.4337 11.189 57.3375 10.699H57.3174C57.2339 11.1918 57.1125 11.6775 56.9542 12.1517L56.3341 14.1053H55.4025L54.0776 9.60662H55.1154L55.625 11.7455C55.7456 12.255 55.8461 12.7345 55.9308 13.1895H55.9494C56.0487 12.7051 56.1723 12.226 56.3198 11.7541L56.9586 9.60806H57.7739L58.3854 11.7081C58.5289 12.2177 58.6538 12.713 58.7471 13.1895H58.773C58.8462 12.6902 58.9483 12.1956 59.0787 11.7081L59.6256 9.60806L60.6032 9.60519ZM65.7837 14.1039H64.7789V11.5201C64.7789 10.7248 64.4732 10.3258 63.8717 10.3258C63.2703 10.3258 62.8669 10.8354 62.8669 11.4282V14.1039H61.8621V10.8942C61.8621 10.4966 61.852 10.0703 61.8248 9.60231H62.7233L62.7693 10.2971H62.798C62.9447 10.0516 63.154 9.84957 63.4044 9.7116C63.6549 9.57363 63.9375 9.50471 64.2234 9.51188C65.1679 9.51188 65.788 10.2296 65.788 11.4081V14.1025L65.7837 14.1039ZM68.5398 14.1039H67.535V7.54387H68.5398V14.1039ZM72.1859 14.2058C70.8724 14.2058 70.0198 13.224 70.0198 11.8919C70.0198 10.5023 70.8897 9.51332 72.2591 9.51332C73.551 9.51332 74.4266 10.4478 74.4266 11.8187C74.4266 13.224 73.528 14.2058 72.1859 14.2058ZM72.2232 10.244C71.5055 10.244 71.0375 10.9186 71.0375 11.8632C71.0375 12.8077 71.5112 13.4637 72.2131 13.4637C72.9151 13.4637 73.3874 12.746 73.3874 11.8431C73.3874 10.9402 72.9266 10.244 72.2232 10.244ZM78.3698 14.1068L78.2966 13.5886H78.2708C78.1195 13.7925 77.9202 13.9558 77.6905 14.064C77.4609 14.1722 77.208 14.2219 76.9545 14.2087C76.1492 14.2087 75.5764 13.6431 75.5764 12.8838C75.5764 11.7742 76.5382 11.2 78.2062 11.2V11.1167C78.2062 10.5253 77.8918 10.2282 77.2717 10.2282C76.8556 10.2212 76.4467 10.3371 76.0961 10.5612L75.8922 9.9052C76.3605 9.63218 76.8965 9.49731 77.4382 9.51619C78.6124 9.51619 79.2067 10.1349 79.2067 11.3823V13.0388C79.2 13.3978 79.2216 13.7569 79.2713 14.1125L78.3698 14.1068ZM78.2263 11.8646C77.1167 11.8646 76.5583 12.133 76.5583 12.7718C76.5583 13.2441 76.8454 13.4737 77.2444 13.4737C77.7526 13.4737 78.2263 13.0862 78.2263 12.5594V11.8646ZM84.0557 14.1053L84.0083 13.3876H83.981C83.6939 13.9331 83.2116 14.2116 82.537 14.2116C81.4518 14.2116 80.6493 13.257 80.6493 11.9148C80.6493 10.5081 81.4819 9.51762 82.6188 9.51762C83.2202 9.51762 83.648 9.72002 83.8877 10.1291H83.9078V7.54531H84.9126V12.8953C84.9126 13.3259 84.9241 13.7379 84.95 14.1082L84.0557 14.1053ZM83.9121 11.4584C83.9121 10.8282 83.4958 10.2913 82.8585 10.2913C82.1178 10.2913 81.6642 10.9488 81.6642 11.8703C81.6642 12.7919 82.135 13.3991 82.8384 13.3991C83.4671 13.3991 83.9121 12.8522 83.9121 12.2048V11.4555V11.4584ZM91.2588 14.2073C89.9453 14.2073 89.0927 13.2254 89.0927 11.8933C89.0927 10.5038 89.9626 9.51475 91.3334 9.51475C92.6253 9.51475 93.4995 10.4492 93.4995 11.8201C93.4995 13.2254 92.6024 14.2073 91.2588 14.2073ZM91.2961 10.2454C90.5784 10.2454 90.1119 10.9201 90.1119 11.8646C90.1119 12.8091 90.5841 13.4651 91.2861 13.4651C91.988 13.4651 92.4617 12.7474 92.4617 11.8445C92.4617 10.9416 92.0009 10.2454 91.2961 10.2454ZM98.8768 14.1053H97.8719V11.5215C97.8719 10.7263 97.5662 10.3272 96.9647 10.3272C96.3633 10.3272 95.9599 10.8368 95.9599 11.4297V14.1053H94.9551V10.8942C94.9551 10.4966 94.9465 10.0703 94.9192 9.60231H95.7977L95.8451 10.2971H95.8824C96.0291 10.0516 96.2384 9.84939 96.4888 9.71119C96.7392 9.57299 97.0219 9.50372 97.3078 9.51045C98.2523 9.51045 98.8739 10.2282 98.8739 11.4081L98.8768 14.1053ZM105.603 10.3559H104.504V12.5407C104.504 13.0962 104.696 13.3747 105.085 13.3747C105.234 13.3756 105.383 13.3597 105.529 13.3273L105.557 14.0867C105.307 14.17 105.044 14.2079 104.781 14.1986C103.993 14.1986 103.522 13.768 103.522 12.6196V10.3574H102.866V9.60806H103.522V8.78411L104.504 8.48697V9.60662H105.603V10.3574V10.3559ZM110.897 14.1053H109.892V11.5431C109.892 10.7378 109.588 10.3301 108.985 10.3301C108.467 10.3301 107.98 10.6818 107.98 11.3952V14.1068H106.976V7.54387H107.98V10.2468H108.001C108.14 10.0152 108.34 9.82517 108.578 9.69644C108.816 9.56772 109.084 9.50499 109.354 9.51475C110.306 9.51475 110.889 10.2554 110.889 11.4311V14.1068L110.897 14.1053ZM116.319 12.0957H113.319C113.338 12.9484 113.902 13.4278 114.737 13.4278C115.151 13.4323 115.561 13.3603 115.949 13.2154L116.105 13.9101C115.626 14.1053 115.112 14.1996 114.595 14.1872C113.188 14.1872 112.356 13.2986 112.356 11.9206C112.356 10.5425 113.208 9.5047 114.483 9.5047C115.631 9.5047 116.349 10.3559 116.349 11.6435C116.356 11.7951 116.345 11.947 116.315 12.0957H116.319ZM115.403 11.378C115.403 10.6832 115.053 10.1937 114.413 10.1937C113.839 10.1937 113.385 10.6933 113.32 11.378H115.403Z" fill="white"/>
</svg>
