<svg width="715" height="715" viewBox="0 0 715 715" fill="none" xmlns="http://www.w3.org/2000/svg">
<path d="M12.2671 264.992C-38.8214 455.657 74.3275 651.636 264.992 702.724C455.657 753.813 651.636 640.664 702.724 449.999C753.813 259.335 640.664 63.3555 449.999 12.2671C259.335 -38.8214 63.3555 74.3275 12.2671 264.992Z" fill="url(#paint0_radial_56_5)"/>
<path d="M357.478 714.923C554.868 714.923 714.885 554.906 714.885 357.516C714.885 160.125 554.868 0.108887 357.478 0.108887C160.087 0.108887 0.0708008 160.125 0.0708008 357.516C0.0708008 554.906 160.087 714.923 357.478 714.923Z" fill="url(#paint1_radial_56_5)"/>
<defs>
<radialGradient id="paint0_radial_56_5" cx="0" cy="0" r="1" gradientUnits="userSpaceOnUse" gradientTransform="translate(366.846 360.001) rotate(164.829) scale(387.855)">
<stop stop-color="#FDF9D1"/>
<stop offset="0.725417" stop-color="#FEF7C1"/>
<stop offset="0.952115" stop-color="#FFEAAE"/>
</radialGradient>
<radialGradient id="paint1_radial_56_5" cx="0" cy="0" r="1" gradientUnits="userSpaceOnUse" gradientTransform="translate(305.466 -68.4921) rotate(84.8738) scale(291.691 291.691)">
<stop offset="0.223431" stop-color="#FFFDE7"/>
<stop offset="0.527659" stop-color="#FFFBD6"/>
<stop offset="1" stop-color="#FFFBD3" stop-opacity="0"/>
</radialGradient>
</defs>
</svg>
