<svg width="132" height="40" viewBox="0 0 132 40" fill="none" xmlns="http://www.w3.org/2000/svg">
<path d="M130.631 34.7087C130.631 35.6985 130.237 36.6478 129.538 37.3477C128.838 38.0476 127.888 38.4408 126.898 38.4408H4.49706C3.5058 38.4416 2.55473 38.049 1.85259 37.3493C1.15045 36.6496 0.754614 35.6999 0.751953 34.7087V4.92149C0.755372 3.93046 1.15145 2.9812 1.85343 2.28165C2.5554 1.58209 3.50603 1.18929 4.49706 1.1893H126.89C127.881 1.18892 128.831 1.58173 129.532 2.28149C130.234 2.98125 130.629 3.93074 130.631 4.92149V34.7087Z" fill="white"/>
<path d="M130.631 34.7087C130.631 35.6985 130.237 36.6478 129.538 37.3477C128.838 38.0476 127.888 38.4408 126.898 38.4408H4.49706C3.5058 38.4416 2.55473 38.049 1.85259 37.3493C1.15045 36.6496 0.754614 35.6999 0.751953 34.7087V4.92149C0.755372 3.93046 1.15145 2.9812 1.85343 2.28165C2.5554 1.58209 3.50603 1.18929 4.49706 1.1893H126.89C127.881 1.18892 128.831 1.58173 129.532 2.28149C130.234 2.98125 130.629 3.93074 130.631 4.92149V34.7087Z" fill="black"/>
<path opacity="0.1" d="M126.891 0.313293H61.332L87.0152 39.3118H126.891C128.113 39.311 129.285 38.8256 130.149 37.9621C131.014 37.0986 131.501 35.9274 131.503 34.7054V4.92254C131.501 3.70018 131.014 2.52847 130.15 1.6644C129.285 0.800323 128.113 0.314432 126.891 0.313293Z" fill="white"/>
<path d="M46.3923 12.1024C46.3923 12.8647 46.2014 13.5379 45.7248 14.0087C45.3114 14.425 44.7834 14.7089 44.2082 14.8242C43.6329 14.9394 43.0364 14.8809 42.4945 14.656C41.9527 14.431 41.49 14.05 41.1654 13.5612C40.8408 13.0725 40.6691 12.4982 40.672 11.9115C40.6687 11.5225 40.743 11.1367 40.8903 10.7766C41.0377 10.4166 41.2553 10.0895 41.5304 9.81435C41.8055 9.53925 42.1326 9.32167 42.4927 9.17429C42.8527 9.0269 43.2385 8.95268 43.6276 8.95593C44.0276 8.95993 44.4211 9.0583 44.7759 9.24302C45.1563 9.4325 45.442 9.62342 45.6372 9.91051L45.1607 10.3871C44.7803 9.91051 44.2994 9.71959 43.6362 9.71959C43.3478 9.70749 43.0605 9.76133 42.7961 9.87699C42.5317 9.99266 42.2971 10.1671 42.1103 10.3871C41.6337 10.7675 41.4428 11.3402 41.4428 12.0077C41.4428 12.6752 41.6337 13.2465 42.1103 13.6269C42.5869 14.0073 43.0634 14.2944 43.6362 14.2944C43.9364 14.3055 44.2355 14.2516 44.513 14.1364C44.7905 14.0212 45.0398 13.8474 45.2439 13.6269C45.3969 13.4777 45.5181 13.299 45.6 13.1016C45.6819 12.9042 45.7229 12.6922 45.7205 12.4785H43.6276V11.7206H46.3923V12.1024ZM50.7762 9.71959H48.2024V11.5297H50.5867V12.1972H48.2024V14.0087H50.7762V14.771H47.4402V9.0521H50.7762V9.71959ZM53.9227 14.771H53.1604V9.71959H51.5398V9.0521H55.5433V9.71959H53.9227V14.771ZM58.308 14.771V9.0521H59.0702V14.771H58.308ZM62.3115 14.771H61.5493V9.71959H59.9286V9.0521H63.8374V9.71959H62.2167V14.771H62.3115ZM71.3692 14.0087C70.9558 14.425 70.4279 14.7089 69.8526 14.8242C69.2774 14.9394 68.6808 14.8809 68.139 14.656C67.5971 14.431 67.1344 14.05 66.8098 13.5612C66.4853 13.0725 66.3135 12.4982 66.3164 11.9115C66.3164 11.1277 66.6278 10.3759 67.1821 9.8216C67.7364 9.26732 68.4881 8.95593 69.272 8.95593C70.0559 8.95593 70.8077 9.26732 71.3619 9.8216C71.9162 10.3759 72.2276 11.1277 72.2276 11.9115C72.2384 12.3016 72.1676 12.6896 72.0198 13.0507C71.8719 13.4119 71.6504 13.7382 71.3692 14.0087ZM67.7461 13.5322C68.1505 13.9418 68.6967 14.1807 69.272 14.1997C69.5599 14.2115 69.8467 14.1576 70.1107 14.0419C70.3746 13.9262 70.6086 13.7519 70.795 13.5322C71.223 13.1014 71.463 12.5187 71.4625 11.9115C71.4625 11.244 71.2716 10.6727 70.795 10.2909C70.3908 9.88182 69.8453 9.64298 69.2706 9.62342C68.9822 9.61132 68.6949 9.66515 68.4305 9.78082C68.1661 9.89648 67.9315 10.0709 67.7447 10.2909C67.3174 10.7221 67.0775 11.3045 67.0772 11.9115C67.0772 12.579 67.2681 13.1503 67.7447 13.5322H67.7461ZM73.2755 14.771V9.0521H74.1368L76.9015 13.5322V9.0521H77.6637V14.771H76.9015L73.9416 10.1V14.771H73.2755Z" fill="white"/>
<path d="M66.125 21.9215C63.8383 21.9215 62.0267 23.6369 62.0267 26.0197C62.0227 26.5591 62.126 27.0939 62.3305 27.593C62.535 28.0921 62.8367 28.5456 63.2181 28.9271C63.5994 29.3085 64.0528 29.6104 64.5518 29.8151C65.0508 30.0198 65.5856 30.1232 66.125 30.1194C68.4131 30.1194 70.2246 28.404 70.2246 26.0197C70.2218 23.5421 68.4131 21.9215 66.125 21.9215ZM66.125 28.404C64.8862 28.404 63.8383 27.3547 63.8383 25.925C63.8383 24.4953 64.8862 23.446 66.125 23.446C67.3638 23.446 68.4131 24.3991 68.4131 25.925C68.4131 27.3547 67.3652 28.404 66.125 28.404ZM57.2596 21.9215C54.9715 21.9215 53.1614 23.6369 53.1614 26.0197C53.1572 26.5592 53.2603 27.094 53.4647 27.5932C53.6692 28.0924 53.9709 28.546 54.3523 28.9275C54.7336 29.309 55.1871 29.6108 55.6862 29.8155C56.1853 30.0201 56.7202 30.1234 57.2596 30.1194C59.5477 30.1194 61.3593 28.404 61.3593 26.0197C61.3593 23.5421 59.5477 21.9215 57.2596 21.9215ZM57.2596 28.404C56.0208 28.404 54.9715 27.3547 54.9715 25.925C54.9715 24.4953 56.0208 23.446 57.2596 23.446C58.4984 23.446 59.5477 24.3991 59.5477 25.925C59.5477 27.3547 58.4998 28.404 57.2596 28.404ZM46.6803 23.1603V24.8828H50.7785C50.6838 25.836 50.3019 26.6054 49.8254 27.0762C49.2512 27.6504 48.3009 28.315 46.6803 28.315C44.1065 28.315 42.2002 26.314 42.2002 23.7388C42.2002 21.1636 44.2012 19.164 46.6803 19.164C47.8456 19.1746 48.9658 19.6158 49.8254 20.4028L51.0656 19.164C50.0163 18.2108 48.6813 17.4414 46.775 17.4414C43.3428 17.4414 40.3887 20.3023 40.3887 23.733C40.3887 27.1638 43.3414 30.0275 46.7736 30.0275C48.6799 30.0275 50.0148 29.4533 51.1589 28.216C52.3073 27.0676 52.6848 25.4513 52.6848 24.2125C52.7052 23.8599 52.6728 23.5062 52.5886 23.1632L46.6803 23.1603ZM89.9593 24.4953C89.5775 23.5421 88.6243 21.9215 86.5271 21.9215C84.4299 21.9215 82.7102 23.5421 82.7102 26.0197C82.7102 28.3078 84.4328 30.1194 86.7137 30.1194C88.5253 30.1194 89.6693 28.971 90.0497 28.3078L88.7148 27.3547C88.2382 28.0222 87.6669 28.5031 86.7137 28.5031C85.7606 28.5031 85.1878 28.1212 84.7113 27.2643L90.1459 24.9761L89.955 24.4996L89.9593 24.4953ZM84.4328 25.8288C84.4328 24.3044 85.6716 23.446 86.53 23.446C87.1975 23.446 87.865 23.8278 88.0559 24.3072L84.4328 25.8288ZM79.9484 29.7404H81.76V17.8261H79.9484V29.7404ZM77.0876 22.7785C76.5113 22.184 75.7234 21.8414 74.8956 21.8253C72.8931 21.8253 70.9869 23.6369 70.9869 25.925C70.9795 26.4448 71.0748 26.961 71.2675 27.4439C71.4601 27.9268 71.7463 28.3668 72.1094 28.7388C72.4726 29.1108 72.9057 29.4074 73.3839 29.6116C73.862 29.8157 74.3757 29.9234 74.8956 29.9285C75.2934 29.9314 75.6871 29.8477 76.0493 29.6831C76.4115 29.5185 76.7334 29.277 76.9928 28.9753H77.0876V29.5495C77.0876 31.0754 76.2263 31.9338 74.8956 31.9338C74.4539 31.9327 74.0236 31.7939 73.6647 31.5365C73.3057 31.2792 73.036 30.9163 72.8931 30.4983L71.3701 31.1673C71.8467 32.2166 72.9908 33.5516 74.9918 33.5516C77.089 33.5516 78.8058 32.3113 78.8058 29.3572V22.111H77.0832V22.7785H77.0876ZM74.9903 28.404C73.7515 28.404 72.7037 27.3547 72.7037 25.925C72.7037 24.4953 73.7515 23.446 74.9903 23.446C76.2291 23.446 77.1837 24.4953 77.1837 25.925C77.1837 27.3547 76.2306 28.404 74.9903 28.404ZM98.2447 17.8218H93.9613V29.7361H95.7729V25.2575H98.2505C100.26 25.2575 102.159 23.822 102.159 21.5397C102.159 19.2573 100.253 17.8261 98.2505 17.8261L98.2447 17.8218ZM98.3409 23.5421H95.7729V19.4425H98.3467C98.8882 19.4413 99.4092 19.6499 99.8003 20.0246C100.191 20.3993 100.422 20.911 100.444 21.4521C100.348 22.5 99.5826 23.5493 98.3467 23.5493L98.3409 23.5421ZM109.304 21.8196C107.969 21.8196 106.634 22.3938 106.157 23.6311L107.778 24.2986C108.159 23.6311 108.731 23.4373 109.398 23.4373C110.351 23.4373 111.21 24.0115 111.306 24.9632V25.058C110.752 24.7499 110.129 24.586 109.494 24.5814C107.772 24.5814 106.062 25.5345 106.062 27.2513C106.062 28.872 107.498 29.9199 109.018 29.9199C110.257 29.9199 110.828 29.3457 111.306 28.7715H111.401V29.7404H113.123V25.1628C112.932 23.0656 111.313 21.8253 109.311 21.8253L109.304 21.8196ZM109.123 28.404C108.548 28.404 107.687 28.1169 107.687 27.3547C107.687 26.4016 108.735 26.1159 109.593 26.1159C110.356 26.1159 110.742 26.3068 111.214 26.4963C111.025 27.6404 110.071 28.404 109.123 28.404ZM119.132 22.111L117.131 27.26H117.035L114.938 22.111H113.027L116.172 29.3572L114.362 33.3606H116.172L121.037 22.111H119.132ZM103.112 29.7404H104.924V17.8261H103.112V29.7404Z" fill="white"/>
<path d="M14.0482 8.2274C13.7611 8.51449 13.6678 8.98963 13.6678 9.56238V30.6291C13.6464 31.1193 13.8175 31.5983 14.1444 31.9641L14.2391 32.0588L26.0601 20.2393V20.0484L14.0482 8.2274Z" fill="url(#paint0_linear_3093_36867)"/>
<path d="M29.8736 24.2421L25.9648 20.3334V20.0463L29.8736 16.1375L29.9698 16.2323L34.6407 18.9022C35.9743 19.6645 35.9743 20.9033 34.6407 21.6669L29.8736 24.2421Z" fill="url(#paint1_linear_3093_36867)"/>
<path d="M29.97 24.142L25.9651 20.1385L14.0508 32.0528C14.5274 32.5294 15.1991 32.5294 16.0532 32.149L29.9772 24.1406" fill="url(#paint2_linear_3093_36867)"/>
<path d="M29.9694 16.1393L16.0454 8.22708C15.1842 7.75051 14.5195 7.84525 14.043 8.32182L25.9573 20.1428L29.9622 16.1393H29.9694Z" fill="url(#paint3_linear_3093_36867)"/>
<defs>
<linearGradient id="paint0_linear_3093_36867" x1="19.8632" y1="8.1585" x2="19.8632" y2="31.8823" gradientUnits="userSpaceOnUse">
<stop stop-color="#267CAF"/>
<stop offset="0.29" stop-color="#4A92B4"/>
<stop offset="0.77" stop-color="#79BCBA"/>
<stop offset="1" stop-color="#88CEBC"/>
</linearGradient>
<linearGradient id="paint1_linear_3093_36867" x1="32.1344" y1="17.2787" x2="29.2406" y2="23.823" gradientUnits="userSpaceOnUse">
<stop stop-color="#F48879"/>
<stop offset="0.12" stop-color="#F5907A"/>
<stop offset="0.71" stop-color="#FBB777"/>
<stop offset="1" stop-color="#FDC874"/>
</linearGradient>
<linearGradient id="paint2_linear_3093_36867" x1="27.8312" y1="22.2558" x2="14.813" y2="32.7835" gradientUnits="userSpaceOnUse">
<stop stop-color="#EB413D"/>
<stop offset="0.17" stop-color="#D94452"/>
<stop offset="0.57" stop-color="#AF487A"/>
<stop offset="0.86" stop-color="#954B92"/>
<stop offset="1" stop-color="#894A9C"/>
</linearGradient>
<linearGradient id="paint3_linear_3093_36867" x1="15.7368" y1="8.80126" x2="28.188" y2="18.3112" gradientUnits="userSpaceOnUse">
<stop stop-color="#54C0AC"/>
<stop offset="1" stop-color="#DDE79A"/>
</linearGradient>
</defs>
</svg>
