<svg width="36" height="31" viewBox="0 0 36 31" fill="none" xmlns="http://www.w3.org/2000/svg">
<path fill-rule="evenodd" clip-rule="evenodd" d="M12.8522 1.11607C5.3222 5.95207 1.1392 11.5801 0.302197 18.0031C-1.0008 28.0001 7.9392 32.8931 12.4692 28.4971C16.9992 24.1001 14.2842 18.5201 11.0042 16.9941C7.7242 15.4691 5.7182 16.0001 6.0682 13.9611C6.4182 11.9231 11.0842 6.27107 15.1842 3.63907C15.3295 3.51552 15.4222 3.3412 15.4434 3.15167C15.4645 2.96213 15.4126 2.77165 15.2982 2.61907L14.2842 1.30007C13.8442 0.72807 13.4222 0.75007 12.8522 1.11507V1.11607ZM32.6782 1.11607C25.1482 5.95207 20.9642 11.5811 20.1282 18.0031C18.8252 28.0001 27.7652 32.8931 32.2952 28.4971C36.8252 24.1001 34.1102 18.5201 30.8292 16.9941C27.5492 15.4691 25.5432 16.0001 25.8932 13.9611C26.2432 11.9231 30.9102 6.27107 35.0102 3.63907C35.1553 3.51538 35.2478 3.341 35.2688 3.15146C35.2898 2.96193 35.2377 2.77153 35.1232 2.61907L34.1092 1.30007C33.6692 0.72807 33.2472 0.75007 32.6782 1.11507V1.11607Z" fill="black"/>
</svg>
